<mxfile host="app.diagrams.net" modified="2024-05-06T08:19:17.644Z" agent="Mozilla/5.0 (Windows NT 10.0; Win64; x64) AppleWebKit/537.36 (KHTML, like Gecko) Chrome/124.0.0.0 Safari/537.36 Edg/124.0.0.0" etag="EnGnz92D416_kjd0IWAo" version="24.2.5" type="device">
  <diagram name="PÃ¡gina-1" id="dYvuWBxtOB7H0bYa3Arq">
    <mxGraphModel dx="1386" dy="785" grid="1" gridSize="10" guides="1" tooltips="1" connect="1" arrows="1" fold="1" page="1" pageScale="1" pageWidth="827" pageHeight="1169" math="0" shadow="0">
      <root>
        <mxCell id="0" />
        <mxCell id="1" parent="0" />
        <mxCell id="x2oLKwVvc0Sxpkpyd2y4-1" value="Regional ISP" style="ellipse;shape=cloud;whiteSpace=wrap;html=1;" vertex="1" parent="1">
          <mxGeometry x="120" y="320" width="140" height="100" as="geometry" />
        </mxCell>
        <mxCell id="x2oLKwVvc0Sxpkpyd2y4-2" value="Regional ISP" style="ellipse;shape=cloud;whiteSpace=wrap;html=1;" vertex="1" parent="1">
          <mxGeometry x="570" y="320" width="140" height="100" as="geometry" />
        </mxCell>
        <mxCell id="x2oLKwVvc0Sxpkpyd2y4-3" value="Global ISP" style="ellipse;shape=cloud;whiteSpace=wrap;html=1;" vertex="1" parent="1">
          <mxGeometry x="310" y="190" width="226" height="180" as="geometry" />
        </mxCell>
        <mxCell id="x2oLKwVvc0Sxpkpyd2y4-4" value="Regional ISP" style="ellipse;shape=cloud;whiteSpace=wrap;html=1;" vertex="1" parent="1">
          <mxGeometry x="230" y="410" width="140" height="100" as="geometry" />
        </mxCell>
        <mxCell id="x2oLKwVvc0Sxpkpyd2y4-5" value="Corporative ISP" style="ellipse;shape=cloud;whiteSpace=wrap;html=1;" vertex="1" parent="1">
          <mxGeometry x="290" y="520" width="106" height="75" as="geometry" />
        </mxCell>
        <mxCell id="x2oLKwVvc0Sxpkpyd2y4-6" value="Corporative ISP" style="ellipse;shape=cloud;whiteSpace=wrap;html=1;" vertex="1" parent="1">
          <mxGeometry x="120" y="500" width="106" height="75" as="geometry" />
        </mxCell>
        <mxCell id="x2oLKwVvc0Sxpkpyd2y4-14" style="edgeStyle=orthogonalEdgeStyle;rounded=0;orthogonalLoop=1;jettySize=auto;html=1;exitX=0.875;exitY=0.5;exitDx=0;exitDy=0;exitPerimeter=0;entryX=0.16;entryY=0.55;entryDx=0;entryDy=0;entryPerimeter=0;curved=1;endArrow=none;endFill=0;" edge="1" parent="1" source="x2oLKwVvc0Sxpkpyd2y4-1" target="x2oLKwVvc0Sxpkpyd2y4-3">
          <mxGeometry relative="1" as="geometry" />
        </mxCell>
        <mxCell id="x2oLKwVvc0Sxpkpyd2y4-16" style="edgeStyle=orthogonalEdgeStyle;rounded=0;orthogonalLoop=1;jettySize=auto;html=1;exitX=0.875;exitY=0.5;exitDx=0;exitDy=0;exitPerimeter=0;entryX=0.16;entryY=0.55;entryDx=0;entryDy=0;entryPerimeter=0;curved=1;endArrow=none;endFill=0;" edge="1" parent="1" source="x2oLKwVvc0Sxpkpyd2y4-3" target="x2oLKwVvc0Sxpkpyd2y4-2">
          <mxGeometry relative="1" as="geometry" />
        </mxCell>
        <mxCell id="x2oLKwVvc0Sxpkpyd2y4-17" value="" style="image;points=[];aspect=fixed;html=1;align=center;shadow=0;dashed=0;image=img/lib/allied_telesis/computer_and_terminals/Personal_Computer.svg;" vertex="1" parent="1">
          <mxGeometry x="60" y="545.8000000000001" width="32.02" height="43.4" as="geometry" />
        </mxCell>
        <mxCell id="x2oLKwVvc0Sxpkpyd2y4-18" value="" style="image;points=[];aspect=fixed;html=1;align=center;shadow=0;dashed=0;image=img/lib/allied_telesis/computer_and_terminals/Personal_Computer.svg;" vertex="1" parent="1">
          <mxGeometry x="120" y="610" width="32.02" height="43.4" as="geometry" />
        </mxCell>
        <mxCell id="x2oLKwVvc0Sxpkpyd2y4-19" value="" style="image;points=[];aspect=fixed;html=1;align=center;shadow=0;dashed=0;image=img/lib/allied_telesis/computer_and_terminals/Personal_Computer.svg;" vertex="1" parent="1">
          <mxGeometry x="193.98000000000002" y="605" width="32.02" height="43.4" as="geometry" />
        </mxCell>
        <mxCell id="x2oLKwVvc0Sxpkpyd2y4-20" style="edgeStyle=orthogonalEdgeStyle;rounded=0;orthogonalLoop=1;jettySize=auto;html=1;entryX=0.085;entryY=0.613;entryDx=0;entryDy=0;entryPerimeter=0;endArrow=none;endFill=0;curved=1;" edge="1" parent="1" source="x2oLKwVvc0Sxpkpyd2y4-17" target="x2oLKwVvc0Sxpkpyd2y4-6">
          <mxGeometry relative="1" as="geometry" />
        </mxCell>
        <mxCell id="x2oLKwVvc0Sxpkpyd2y4-21" style="edgeStyle=orthogonalEdgeStyle;rounded=0;orthogonalLoop=1;jettySize=auto;html=1;entryX=0.377;entryY=0.947;entryDx=0;entryDy=0;entryPerimeter=0;curved=1;endArrow=none;endFill=0;" edge="1" parent="1" source="x2oLKwVvc0Sxpkpyd2y4-18" target="x2oLKwVvc0Sxpkpyd2y4-6">
          <mxGeometry relative="1" as="geometry" />
        </mxCell>
        <mxCell id="x2oLKwVvc0Sxpkpyd2y4-22" style="edgeStyle=orthogonalEdgeStyle;rounded=0;orthogonalLoop=1;jettySize=auto;html=1;entryX=0.868;entryY=0.853;entryDx=0;entryDy=0;entryPerimeter=0;curved=1;endArrow=none;endFill=0;" edge="1" parent="1" source="x2oLKwVvc0Sxpkpyd2y4-19" target="x2oLKwVvc0Sxpkpyd2y4-6">
          <mxGeometry relative="1" as="geometry" />
        </mxCell>
        <mxCell id="x2oLKwVvc0Sxpkpyd2y4-23" style="edgeStyle=orthogonalEdgeStyle;rounded=0;orthogonalLoop=1;jettySize=auto;html=1;exitX=0.88;exitY=0.25;exitDx=0;exitDy=0;exitPerimeter=0;entryX=0.13;entryY=0.77;entryDx=0;entryDy=0;entryPerimeter=0;curved=1;endArrow=none;endFill=0;" edge="1" parent="1" source="x2oLKwVvc0Sxpkpyd2y4-6" target="x2oLKwVvc0Sxpkpyd2y4-4">
          <mxGeometry relative="1" as="geometry" />
        </mxCell>
        <mxCell id="x2oLKwVvc0Sxpkpyd2y4-24" style="edgeStyle=orthogonalEdgeStyle;rounded=0;orthogonalLoop=1;jettySize=auto;html=1;exitX=0.625;exitY=0.2;exitDx=0;exitDy=0;exitPerimeter=0;entryX=0.314;entryY=0.839;entryDx=0;entryDy=0;entryPerimeter=0;curved=1;endArrow=none;endFill=0;" edge="1" parent="1" source="x2oLKwVvc0Sxpkpyd2y4-4" target="x2oLKwVvc0Sxpkpyd2y4-3">
          <mxGeometry relative="1" as="geometry" />
        </mxCell>
        <mxCell id="x2oLKwVvc0Sxpkpyd2y4-25" style="edgeStyle=orthogonalEdgeStyle;rounded=0;orthogonalLoop=1;jettySize=auto;html=1;exitX=0.4;exitY=0.1;exitDx=0;exitDy=0;exitPerimeter=0;entryX=0.679;entryY=0.93;entryDx=0;entryDy=0;entryPerimeter=0;curved=1;endArrow=none;endFill=0;" edge="1" parent="1" source="x2oLKwVvc0Sxpkpyd2y4-5" target="x2oLKwVvc0Sxpkpyd2y4-4">
          <mxGeometry relative="1" as="geometry" />
        </mxCell>
        <mxCell id="x2oLKwVvc0Sxpkpyd2y4-26" value="" style="shape=callout;whiteSpace=wrap;html=1;perimeter=calloutPerimeter;" vertex="1" parent="1">
          <mxGeometry x="340" y="50" width="330" height="170" as="geometry" />
        </mxCell>
        <mxCell id="x2oLKwVvc0Sxpkpyd2y4-27" value="" style="shape=mxgraph.cisco.routers.router;html=1;pointerEvents=1;dashed=0;fillColor=#036897;strokeColor=#ffffff;strokeWidth=2;verticalLabelPosition=bottom;verticalAlign=top;align=center;outlineConnect=0;" vertex="1" parent="1">
          <mxGeometry x="370" y="100" width="40" height="30" as="geometry" />
        </mxCell>
        <mxCell id="x2oLKwVvc0Sxpkpyd2y4-28" value="" style="shape=mxgraph.cisco.routers.router;html=1;pointerEvents=1;dashed=0;fillColor=#036897;strokeColor=#ffffff;strokeWidth=2;verticalLabelPosition=bottom;verticalAlign=top;align=center;outlineConnect=0;" vertex="1" parent="1">
          <mxGeometry x="420" y="130" width="40" height="30" as="geometry" />
        </mxCell>
        <mxCell id="x2oLKwVvc0Sxpkpyd2y4-29" value="" style="shape=mxgraph.cisco.routers.router;html=1;pointerEvents=1;dashed=0;fillColor=#036897;strokeColor=#ffffff;strokeWidth=2;verticalLabelPosition=bottom;verticalAlign=top;align=center;outlineConnect=0;" vertex="1" parent="1">
          <mxGeometry x="460" y="70" width="40" height="30" as="geometry" />
        </mxCell>
        <mxCell id="x2oLKwVvc0Sxpkpyd2y4-30" value="" style="shape=mxgraph.cisco.routers.router;html=1;pointerEvents=1;dashed=0;fillColor=#036897;strokeColor=#ffffff;strokeWidth=2;verticalLabelPosition=bottom;verticalAlign=top;align=center;outlineConnect=0;" vertex="1" parent="1">
          <mxGeometry x="520" y="120" width="40" height="30" as="geometry" />
        </mxCell>
        <mxCell id="x2oLKwVvc0Sxpkpyd2y4-31" value="" style="shape=mxgraph.cisco.routers.router;html=1;pointerEvents=1;dashed=0;fillColor=#036897;strokeColor=#ffffff;strokeWidth=2;verticalLabelPosition=bottom;verticalAlign=top;align=center;outlineConnect=0;" vertex="1" parent="1">
          <mxGeometry x="470" y="150" width="40" height="30" as="geometry" />
        </mxCell>
        <mxCell id="x2oLKwVvc0Sxpkpyd2y4-32" value="" style="shape=mxgraph.cisco.routers.router;html=1;pointerEvents=1;dashed=0;fillColor=#036897;strokeColor=#ffffff;strokeWidth=2;verticalLabelPosition=bottom;verticalAlign=top;align=center;outlineConnect=0;" vertex="1" parent="1">
          <mxGeometry x="600" y="100" width="40" height="30" as="geometry" />
        </mxCell>
        <mxCell id="x2oLKwVvc0Sxpkpyd2y4-33" style="edgeStyle=orthogonalEdgeStyle;rounded=0;orthogonalLoop=1;jettySize=auto;html=1;exitX=0.88;exitY=0.1;exitDx=0;exitDy=0;exitPerimeter=0;entryX=0;entryY=0.5;entryDx=0;entryDy=0;entryPerimeter=0;endArrow=none;endFill=0;" edge="1" parent="1" source="x2oLKwVvc0Sxpkpyd2y4-27" target="x2oLKwVvc0Sxpkpyd2y4-29">
          <mxGeometry relative="1" as="geometry" />
        </mxCell>
        <mxCell id="x2oLKwVvc0Sxpkpyd2y4-34" style="edgeStyle=orthogonalEdgeStyle;rounded=0;orthogonalLoop=1;jettySize=auto;html=1;exitX=1;exitY=0.5;exitDx=0;exitDy=0;exitPerimeter=0;entryX=0;entryY=0.5;entryDx=0;entryDy=0;entryPerimeter=0;endArrow=none;endFill=0;" edge="1" parent="1" source="x2oLKwVvc0Sxpkpyd2y4-29" target="x2oLKwVvc0Sxpkpyd2y4-32">
          <mxGeometry relative="1" as="geometry" />
        </mxCell>
        <mxCell id="x2oLKwVvc0Sxpkpyd2y4-35" style="edgeStyle=orthogonalEdgeStyle;rounded=0;orthogonalLoop=1;jettySize=auto;html=1;exitX=0.88;exitY=0.1;exitDx=0;exitDy=0;exitPerimeter=0;entryX=0.5;entryY=1;entryDx=0;entryDy=0;entryPerimeter=0;endArrow=none;endFill=0;" edge="1" parent="1" source="x2oLKwVvc0Sxpkpyd2y4-28" target="x2oLKwVvc0Sxpkpyd2y4-29">
          <mxGeometry relative="1" as="geometry" />
        </mxCell>
        <mxCell id="x2oLKwVvc0Sxpkpyd2y4-36" style="edgeStyle=orthogonalEdgeStyle;rounded=0;orthogonalLoop=1;jettySize=auto;html=1;exitX=0.5;exitY=1;exitDx=0;exitDy=0;exitPerimeter=0;entryX=0;entryY=0.5;entryDx=0;entryDy=0;entryPerimeter=0;endArrow=none;endFill=0;" edge="1" parent="1" source="x2oLKwVvc0Sxpkpyd2y4-27" target="x2oLKwVvc0Sxpkpyd2y4-31">
          <mxGeometry relative="1" as="geometry" />
        </mxCell>
        <mxCell id="x2oLKwVvc0Sxpkpyd2y4-37" style="edgeStyle=orthogonalEdgeStyle;rounded=0;orthogonalLoop=1;jettySize=auto;html=1;exitX=1;exitY=0.5;exitDx=0;exitDy=0;exitPerimeter=0;entryX=0.5;entryY=1;entryDx=0;entryDy=0;entryPerimeter=0;endArrow=none;endFill=0;" edge="1" parent="1" source="x2oLKwVvc0Sxpkpyd2y4-31" target="x2oLKwVvc0Sxpkpyd2y4-30">
          <mxGeometry relative="1" as="geometry" />
        </mxCell>
        <mxCell id="x2oLKwVvc0Sxpkpyd2y4-38" style="edgeStyle=orthogonalEdgeStyle;rounded=0;orthogonalLoop=1;jettySize=auto;html=1;exitX=1;exitY=0.5;exitDx=0;exitDy=0;exitPerimeter=0;entryX=0.5;entryY=1;entryDx=0;entryDy=0;entryPerimeter=0;endArrow=none;endFill=0;" edge="1" parent="1" source="x2oLKwVvc0Sxpkpyd2y4-30" target="x2oLKwVvc0Sxpkpyd2y4-32">
          <mxGeometry relative="1" as="geometry" />
        </mxCell>
        <mxCell id="x2oLKwVvc0Sxpkpyd2y4-39" style="edgeStyle=orthogonalEdgeStyle;rounded=0;orthogonalLoop=1;jettySize=auto;html=1;exitX=1;exitY=0.5;exitDx=0;exitDy=0;exitPerimeter=0;entryX=0;entryY=0;entryDx=330;entryDy=70;entryPerimeter=0;endArrow=none;endFill=0;" edge="1" parent="1" source="x2oLKwVvc0Sxpkpyd2y4-32" target="x2oLKwVvc0Sxpkpyd2y4-26">
          <mxGeometry relative="1" as="geometry" />
        </mxCell>
        <mxCell id="x2oLKwVvc0Sxpkpyd2y4-40" style="edgeStyle=orthogonalEdgeStyle;rounded=0;orthogonalLoop=1;jettySize=auto;html=1;exitX=0.5;exitY=1;exitDx=0;exitDy=0;exitPerimeter=0;entryX=0.458;entryY=0.818;entryDx=0;entryDy=0;entryPerimeter=0;endArrow=none;endFill=0;" edge="1" parent="1" source="x2oLKwVvc0Sxpkpyd2y4-31" target="x2oLKwVvc0Sxpkpyd2y4-26">
          <mxGeometry relative="1" as="geometry" />
        </mxCell>
        <mxCell id="x2oLKwVvc0Sxpkpyd2y4-41" style="edgeStyle=orthogonalEdgeStyle;rounded=0;orthogonalLoop=1;jettySize=auto;html=1;exitX=0;exitY=0.5;exitDx=0;exitDy=0;exitPerimeter=0;entryX=0;entryY=0;entryDx=0;entryDy=70;entryPerimeter=0;endArrow=none;endFill=0;" edge="1" parent="1" source="x2oLKwVvc0Sxpkpyd2y4-27" target="x2oLKwVvc0Sxpkpyd2y4-26">
          <mxGeometry relative="1" as="geometry" />
        </mxCell>
      </root>
    </mxGraphModel>
  </diagram>
</mxfile>
